<?xml version="1.0" standalone="no"?>
<!DOCTYPE svg PUBLIC "-//W3C//DTD SVG 20010904//EN"
 "http://www.w3.org/TR/2001/REC-SVG-20010904/DTD/svg10.dtd">
<svg version="1.0" xmlns="http://www.w3.org/2000/svg"
 width="4978.000000pt" height="4978.000000pt" viewBox="0 0 4978.000000 4978.000000"
 preserveAspectRatio="xMidYMid meet">

<g transform="translate(0.000000,4978.000000) scale(0.100000,-0.100000)"
fill="#000000" stroke="none">
<path d="M0 24890 l0 -24890 24890 0 24890 0 0 24890 0 24890 -24890 0 -24890
0 0 -24890z m30808 10846 c-2 -7 -2266 -4861 -5033 -10785 l-5030 -10771
-1223 0 c-673 0 -1221 3 -1219 8 2 4 2269 4851 5037 10772 2768 5921 5038
10771 5043 10778 15 19 2430 18 2425 -2z m-14955 -6807 c-5 -3 -2451 -925
-5438 -2049 -2986 -1123 -5433 -2045 -5438 -2049 -4 -4 2440 -920 5430 -2036
2991 -1115 5441 -2031 5446 -2035 4 -3 6 -531 5 -1172 l-3 -1167 -6770 2677
-6770 2677 0 1064 0 1063 6770 2677 6770 2677 3 -1160 c1 -638 -1 -1163 -5
-1167z m25052 -433 l6560 -2594 0 -1063 0 -1064 -6770 -2677 -6770 -2677 -3
1167 c-1 641 1 1169 5 1173 5 3 2455 919 5446 2034 2990 1116 5434 2032 5430
2036 -5 4 -2454 927 -5443 2052 l-5435 2045 -3 1165 -2 1165 212 -84 c117 -46
3165 -1251 6773 -2678z"/>
</g>
</svg>
